<svg version="1.1" id="Layer_1" xmlns="http://www.w3.org/2000/svg" xmlns:xlink="http://www.w3.org/1999/xlink" x="0px" y="0px"
	 width="100%" viewBox="0 0 1200 1200" enable-background="new 0 0 1200 1200" xml:space="preserve">
<path fill="#FECE15" opacity="1.000000" stroke="none" 
	d="
M633.999939,991.000000 
	C607.500854,991.000000 581.500916,990.873108 555.502808,991.040466 
	C535.075195,991.171997 514.648804,991.612732 494.224030,992.023926 
	C484.461243,992.220398 474.702179,992.633301 464.943909,993.011902 
	C457.848236,993.287170 450.754333,993.983154 443.663666,993.931763 
	C430.402039,993.835632 417.142914,993.350281 403.883789,992.987549 
	C400.545105,992.896240 398.438171,989.991089 399.062439,986.627625 
	C399.445465,984.563843 399.917664,982.479797 399.964508,980.396240 
	C400.360016,962.804565 400.961884,945.209717 400.894135,927.618225 
	C400.850372,916.263733 399.243530,904.910156 399.308014,893.561646 
	C399.400848,877.229004 400.460358,860.903625 400.912201,844.569763 
	C401.015808,840.823730 400.060455,837.056824 400.043915,833.297546 
	C399.952240,812.465271 399.884613,791.631592 400.043793,770.800110 
	C400.137482,758.538330 400.761902,746.281616 400.980011,734.019592 
	C401.384796,711.261292 401.978821,688.500061 401.930634,665.741272 
	C401.847504,626.481750 401.253326,587.223511 401.028259,547.963806 
	C400.879211,521.965942 401.126343,495.965698 400.959259,469.968079 
	C400.830109,449.873749 400.099945,429.782410 400.045746,409.688629 
	C399.908112,358.670135 400.067780,307.650909 399.954224,256.632294 
	C399.924316,243.205063 399.302460,229.779739 399.013123,216.352219 
	C398.869843,209.703186 400.930695,208.886749 406.409790,208.903214 
	C459.907562,209.063965 513.406006,208.999069 566.904236,209.001144 
	C573.665833,209.001404 573.998779,209.330856 573.998779,216.043823 
	C574.000366,389.038177 574.049866,562.032593 573.913147,735.026794 
	C573.901123,750.214050 572.154419,765.400635 572.160889,780.587097 
	C572.166199,792.898926 573.596191,805.210266 574.425232,818.000000 
	C576.167297,818.000000 577.950439,818.000000 579.733521,818.000000 
	C651.397827,818.000000 723.062195,818.000061 794.726501,818.000122 
	C802.143311,818.000183 802.033752,818.000305 802.019836,825.399963 
	C801.969727,852.065613 802.000000,878.731506 802.000000,905.397278 
	C801.999939,933.229675 801.907654,961.062744 802.092529,988.893921 
	C802.122681,993.436523 799.933594,994.319702 796.370544,993.942566 
	C791.511230,993.428223 786.691223,992.221924 781.832214,992.082397 
	C763.412109,991.553955 744.982666,991.051697 726.557373,991.074524 
	C703.964050,991.102478 681.372253,991.783569 658.778076,991.937073 
	C650.687805,991.992065 642.592773,991.333069 633.999939,991.000000 
M470.169525,971.292542 
	C474.288391,967.807312 478.509003,964.434326 482.502594,960.811096 
	C488.726624,955.164246 494.796570,949.347656 501.699738,942.883972 
	C493.072235,940.822571 485.320282,938.970459 477.147400,937.017700 
	C474.397797,948.346558 471.657440,959.637390 468.365662,971.142700 
	C468.261993,971.658997 468.158295,972.175232 468.054626,972.691528 
	C468.368744,972.937256 468.682831,973.183044 468.996948,973.428772 
	C469.209381,972.862427 469.421844,972.296082 470.169525,971.292542 
M463.857361,631.365784 
	C463.341095,631.262146 462.824829,631.158447 462.308563,631.054749 
	C462.062683,631.368958 461.816803,631.683167 461.570923,631.997375 
	C462.137329,632.209656 462.703705,632.421997 463.712708,633.175720 
	C472.561859,646.000244 481.411011,658.824707 490.527039,672.036011 
	C491.400818,663.128540 492.379211,655.012634 492.893921,646.867371 
	C493.066833,644.131409 494.617004,640.321960 490.172333,639.072388 
	C481.488007,636.631042 472.773712,634.296082 463.857361,631.365784 
M533.846313,267.008575 
	C544.497620,262.874847 555.148865,258.741150 565.645325,254.667542 
	C565.645325,245.476532 565.645325,236.461365 565.645325,226.585373 
	C558.049316,235.473511 550.990906,243.649338 544.031128,251.908340 
	C540.035950,256.649323 536.200684,261.525146 531.851562,266.726898 
	C531.692444,267.067139 531.533325,267.407410 531.374207,267.747650 
	C531.940918,267.525208 532.507629,267.302765 533.846313,267.008575 
M450.825195,563.712036 
	C438.444580,573.068726 426.063934,582.425415 413.207733,592.141479 
	C424.830383,599.606140 435.762878,606.627563 447.035278,613.867249 
	C448.752655,596.925171 450.417816,580.498474 452.634308,563.857300 
	C452.737976,563.341003 452.841644,562.824707 452.945312,562.308411 
	C452.631226,562.062744 452.317139,561.817017 452.003082,561.571289 
	C451.790649,562.137634 451.578186,562.703918 450.825195,563.712036 
M483.538818,924.968628 
	C482.363983,927.006287 481.326355,928.814758 485.161652,929.074829 
	C487.209320,929.213684 489.186707,930.187866 491.230255,930.623535 
	C499.779144,932.445862 508.279602,935.171448 516.915283,935.721252 
	C525.673828,936.278870 534.561157,934.460205 543.409180,934.053467 
	C555.149353,933.513916 566.907776,933.380005 578.654602,932.965088 
	C581.305847,932.871460 583.941650,932.337952 587.456665,931.897705 
	C561.807983,912.025024 536.926331,892.746582 511.913300,873.366333 
	C502.324371,890.843811 493.137817,907.587830 483.538818,924.968628 
M539.979858,475.509064 
	C547.392395,470.735321 554.804993,465.961578 562.279358,461.148041 
	C549.015198,448.762573 536.143677,436.743744 524.106384,425.503876 
	C508.035156,441.526367 492.321350,457.192535 476.694733,472.771790 
	C486.954132,476.144470 498.038818,479.156647 508.601471,483.452484 
	C517.729980,487.165131 525.482422,487.007721 532.844543,480.085602 
	C534.688599,478.351746 537.180908,477.307373 539.979858,475.509064 
M558.487915,573.008362 
	C541.278687,593.148560 524.069397,613.288757 506.337219,634.040894 
	C526.921448,640.025146 546.205627,645.631470 565.794922,651.326477 
	C565.794922,622.339417 565.794922,593.965820 565.794922,564.601990 
	C563.151917,567.674011 561.076233,570.086670 558.487915,573.008362 
M461.007019,570.740356 
	C460.065125,579.023987 459.050537,587.300293 458.206665,595.593872 
	C457.637451,601.188721 457.309143,606.808044 456.827667,612.999512 
	C488.938843,593.947937 520.274536,575.356506 552.555908,556.203979 
	C521.930115,556.203979 492.636627,556.203979 463.221222,556.203979 
	C462.481201,560.865295 461.770264,565.343323 461.007019,570.740356 
M510.500000,547.000000 
	C527.188049,547.000000 543.876099,547.000000 561.001770,547.000000 
	C547.448669,530.659668 534.439697,514.975220 521.471191,499.339691 
	C504.423157,515.067200 487.409241,530.763184 469.809113,547.000000 
	C483.595459,547.000000 496.547729,547.000000 510.500000,547.000000 
M464.000000,336.379913 
	C463.589844,330.311920 463.179718,324.243958 462.772308,318.216797 
	C462.260803,318.135162 461.886688,317.952209 461.610870,318.049072 
	C446.074585,323.507233 430.542267,328.976685 415.022552,334.481750 
	C412.868103,335.245941 412.427917,336.298279 413.908142,338.497253 
	C417.794312,344.270569 421.345947,350.269226 425.025940,356.181152 
	C432.834930,368.726318 440.640778,381.273468 448.982391,394.678711 
	C451.641663,387.273407 454.349792,380.877136 456.230225,374.246155 
	C459.665283,362.133301 467.745483,350.950134 464.000000,336.379913 
M641.000793,847.399170 
	C642.365845,856.621277 643.730896,865.843445 645.147461,875.413574 
	C670.015442,867.564209 694.037109,859.981995 719.315369,852.003113 
	C691.826599,844.034546 665.711182,836.464172 638.724060,828.641052 
	C639.530518,834.966370 640.265259,840.729553 641.000793,847.399170 
M726.946411,957.278564 
	C724.713440,962.063110 722.480408,966.847656 720.247437,971.632263 
	C720.487732,971.755615 720.728088,971.878967 720.968384,972.002380 
	C743.914307,955.161377 766.860168,938.320435 790.130249,921.241577 
	C777.140381,914.141724 764.566040,907.269043 751.784119,900.282898 
	C743.287476,919.555542 735.143738,938.027771 726.946411,957.278564 
M720.551941,946.953491 
	C727.119080,931.826111 733.686218,916.698792 740.484741,901.038391 
	C721.670288,907.585632 703.780640,913.810974 685.780212,920.074890 
	C693.282715,938.421448 700.563965,956.226990 708.120972,974.706787 
	C712.396851,964.987183 716.229370,956.275208 720.551941,946.953491 
M520.002380,702.503357 
	C513.468689,699.727234 506.935028,696.951172 500.189972,694.085266 
	C503.458527,713.914795 506.612823,733.051025 509.846039,752.666138 
	C527.368530,741.266052 543.652893,730.671448 560.599548,719.645935 
	C546.712341,713.840759 533.682068,708.393738 520.002380,702.503357 
M540.967224,883.472656 
	C558.766785,897.343445 576.566345,911.214294 595.114136,925.668152 
	C593.681641,908.690308 592.352356,892.934875 590.998352,876.887024 
	C569.789673,875.442200 549.153198,874.036316 528.516785,872.630432 
	C528.450073,873.079956 528.383362,873.529419 528.316711,873.978943 
	C532.333740,877.003113 536.350769,880.027283 540.967224,883.472656 
M772.984131,865.527039 
	C767.264221,873.758545 761.544373,881.990051 755.440613,890.773987 
	C768.344299,898.166138 780.932068,905.377319 793.686951,912.684265 
	C793.686951,887.427185 793.686951,862.472168 793.686951,836.387085 
	C786.534790,846.524109 780.016602,855.762634 772.984131,865.527039 
M482.000031,452.500031 
	C491.946869,442.123230 501.893677,431.746429 512.450378,420.733429 
	C493.245514,417.541351 474.797699,414.475098 455.818665,411.320526 
	C460.344391,429.359894 464.772919,447.011810 469.388733,465.410278 
	C473.840546,460.848511 477.670258,456.924225 482.000031,452.500031 
M509.950287,393.643219 
	C512.637268,397.064362 515.324280,400.485504 518.011292,403.906647 
	C518.410950,403.802216 518.810669,403.697784 519.210327,403.593323 
	C521.252380,383.247833 523.294434,362.902344 525.377319,342.149933 
	C509.241821,346.198944 493.761261,350.083557 478.061279,354.023254 
	C481.024231,357.814148 483.479462,361.056580 486.040466,364.213135 
	C493.851440,373.840576 501.703217,383.434937 509.950287,393.643219 
M450.943512,711.708862 
	C453.748383,719.033752 456.553223,726.358704 459.624878,734.380310 
	C468.941589,719.145996 477.964630,704.391968 487.261536,689.190063 
	C469.998322,683.965454 453.172180,678.873108 435.342743,673.477112 
	C440.734619,686.805786 445.634430,698.918091 450.943512,711.708862 
M537.525269,408.983215 
	C535.004883,411.756531 532.484558,414.529877 529.727539,417.563538 
	C541.780396,428.778870 553.566833,439.746277 565.653076,450.992706 
	C565.653076,426.073029 565.653076,401.776245 565.653076,376.817474 
	C556.123352,387.733124 547.072754,398.099915 537.525269,408.983215 
M527.575195,694.939026 
	C540.160767,700.303833 552.746399,705.668640 565.723755,711.200439 
	C565.723755,695.597656 565.723755,680.435730 565.723755,664.981201 
	C546.509216,672.187195 527.536011,679.302673 508.087036,686.596558 
	C514.578308,689.298828 520.768188,691.875671 527.575195,694.939026 
M526.500000,818.000000 
	C539.256653,818.000000 552.013306,818.000000 564.200439,818.000000 
	C564.200439,804.754089 564.200439,792.141479 564.200439,779.016541 
	C541.428650,792.104309 519.489075,804.713745 496.371857,818.000000 
	C506.988556,818.000000 516.244263,818.000000 526.500000,818.000000 
M488.494995,605.002869 
	C479.701385,610.076843 470.907776,615.150818 461.618073,620.511108 
	C473.002228,624.089661 483.715546,627.506226 494.485535,630.733582 
	C495.210022,630.950684 496.583344,629.936218 497.280914,629.158875 
	C501.993042,623.907715 506.609497,618.570618 511.247009,613.252686 
	C520.306396,602.864197 529.393982,592.499878 538.393555,582.059814 
	C541.023682,579.008728 543.395813,575.735046 545.886169,572.563354 
	C540.666138,574.685669 536.088257,577.351196 531.499512,579.997986 
	C517.345581,588.161682 503.187622,596.318298 488.494995,605.002869 
M714.991272,867.512451 
	C716.271912,865.856201 717.552612,864.200012 718.833252,862.543762 
	C718.579285,862.234314 718.325317,861.924927 718.071289,861.615479 
	C695.734558,868.907837 673.397827,876.200256 650.009399,883.835938 
	C659.920715,893.011719 669.286438,901.682373 679.101685,910.769165 
	C691.149780,896.207764 702.812683,882.111877 714.991272,867.512451 
M533.067505,490.430664 
	C531.766174,491.393951 530.464783,492.357208 528.907227,493.510101 
	C541.087952,508.253113 553.205200,522.919189 565.744629,538.096313 
	C565.744629,515.148621 565.744629,492.860382 565.744629,470.427246 
	C554.896484,477.068237 544.298584,483.556030 533.067505,490.430664 
M449.016266,541.516968 
	C450.863434,542.364136 452.710571,543.211365 454.744965,544.144470 
	C456.823944,524.489319 458.849884,505.336060 460.978882,485.208160 
	C444.718201,498.826172 429.429077,511.630493 413.830719,524.693787 
	C425.552124,530.244507 436.968750,535.650818 449.016266,541.516968 
M689.500000,825.000000 
	C681.566040,825.000000 673.632141,825.000000 665.507751,825.000000 
	C665.875061,825.476257 666.008118,825.843628 666.232788,825.912598 
	C688.104370,832.630249 709.976074,839.347656 731.879456,845.960083 
	C733.051819,846.314026 734.658142,846.121765 735.785156,845.592957 
	C744.283203,841.605713 752.692566,837.430237 761.168762,833.395691 
	C766.598938,830.810974 772.095764,828.366211 777.562683,825.858704 
	C777.457642,825.572449 777.352661,825.286255 777.247620,825.000000 
	C748.331787,825.000000 719.415894,825.000000 689.500000,825.000000 
M470.033691,486.030457 
	C469.689148,489.944733 469.407776,493.865814 468.987183,497.771912 
	C468.044312,506.528717 466.971558,515.271851 466.072479,524.033020 
	C465.580963,528.822388 465.335602,533.637146 464.905640,539.432129 
	C480.933167,524.227417 496.179901,509.763336 511.944855,494.807709 
	C497.734650,490.080261 484.525177,485.685760 471.422302,481.326691 
	C471.008057,482.751434 470.651001,483.979462 470.033691,486.030457 
M559.006348,966.491211 
	C568.258972,958.245667 577.511597,950.000183 587.837280,940.798340 
	C564.721313,942.143433 543.077759,943.402893 520.657776,944.707581 
	C529.079834,956.907776 536.847656,968.160339 544.643372,979.453125 
	C549.673645,974.932373 554.086792,970.966187 559.006348,966.491211 
M457.219055,401.559174 
	C458.582153,402.038879 459.910065,402.716095 461.314087,402.966278 
	C470.741791,404.646210 480.176117,406.294312 489.627594,407.834259 
	C496.555573,408.963074 503.512909,409.911530 511.393616,411.079071 
	C497.672211,394.015778 484.556702,377.705933 471.241089,361.147278 
	C466.625244,374.642944 462.137085,387.765350 457.219055,401.559174 
M465.489075,839.008545 
	C466.568634,836.789490 467.648224,834.570496 469.293976,831.187744 
	C450.440521,839.069885 432.742584,846.468933 414.679688,854.020569 
	C424.415466,864.556641 433.556946,874.449585 443.178833,884.862427 
	C450.714264,869.281860 457.883331,854.458862 465.489075,839.008545 
M570.423828,866.000000 
	C575.871338,866.398438 581.318909,866.796875 587.601257,867.256287 
	C581.556152,855.136108 576.019958,844.134888 570.593384,833.079956 
	C569.386353,830.620972 568.402039,830.554382 566.190491,832.191772 
	C556.923401,839.052979 547.494690,845.696472 538.098511,852.382202 
	C533.464050,855.679749 528.771790,858.895935 523.278320,862.725708 
	C539.602478,863.882751 554.538147,864.941345 570.423828,866.000000 
M453.993439,440.569519 
	C452.071259,432.773651 450.149078,424.977783 448.022797,416.354187 
	C436.605316,431.226532 425.982025,445.064392 415.021881,459.341034 
	C430.667725,462.439911 445.178619,465.313965 460.504700,468.349518 
	C458.170013,458.676025 456.088226,450.050568 453.993439,440.569519 
M552.315369,217.000000 
	C540.580566,217.000000 528.845764,217.000000 517.267212,217.000000 
	C517.267212,234.615768 517.267212,251.484650 517.267212,268.926392 
	C531.670715,251.453430 545.682495,234.455719 560.071838,217.000000 
	C557.244019,217.000000 555.247498,217.000000 552.315369,217.000000 
M511.040009,798.467163 
	C525.267822,790.514893 539.495605,782.562622 554.946228,773.926880 
	C538.469849,771.277100 523.320312,768.840759 508.284271,766.422607 
	C502.057800,781.020996 495.965820,795.304016 489.873871,809.586975 
	C490.168030,809.805908 490.462219,810.024841 490.756409,810.243774 
	C497.338684,806.495178 503.920959,802.746521 511.040009,798.467163 
M512.341553,858.936096 
	C526.804565,848.522217 541.267578,838.108337 556.201416,827.355469 
	C533.038879,827.355469 510.758148,827.355469 488.188507,827.355469 
	C496.177887,838.127747 503.892548,848.529541 512.341553,858.936096 
M519.500244,959.999939 
	C516.691223,955.939819 513.882202,951.879700 510.996979,947.709412 
	C497.810455,959.690552 484.946930,971.378235 472.083374,983.065918 
	C479.651306,983.795654 486.665070,983.266602 493.688690,983.028442 
	C506.605896,982.590210 519.529114,982.329956 532.448853,981.960083 
	C532.983948,981.944824 533.508850,981.571411 534.115051,981.334961 
	C529.283142,974.203796 524.649658,967.365601 519.500244,959.999939 
M421.976837,505.534851 
	C432.908722,496.248566 443.840607,486.962250 455.372650,477.166138 
	C440.214539,474.044098 425.797516,471.074646 410.657166,467.956238 
	C410.657166,483.791626 410.657166,499.161163 410.657166,514.594177 
	C414.315857,511.691650 417.883606,508.861328 421.976837,505.534851 
M416.474762,776.017151 
	C427.295593,766.525330 438.116425,757.033447 449.206482,747.305420 
	C436.009155,741.082947 423.196564,735.041870 409.565338,728.614868 
	C409.565338,746.837280 409.565338,764.127747 409.565338,781.521545 
	C411.687683,779.870972 413.831543,778.203613 416.474762,776.017151 
M409.090363,864.748535 
	C409.288452,887.963196 409.486572,911.177856 409.684662,934.392578 
	C419.215698,921.660889 427.668243,908.987732 436.183075,896.356567 
	C437.354340,894.619080 438.009003,893.410400 436.110260,891.499878 
	C427.230225,882.565247 418.536530,873.445374 409.090363,864.748535 
M656.500488,945.999329 
	C653.918762,948.341736 651.336975,950.684143 648.404236,953.344971 
	C665.227173,961.280823 681.221863,968.826050 698.143677,976.808533 
	C690.934814,959.052246 684.200439,942.464661 677.203979,925.231506 
	C670.112610,932.345459 663.556335,938.922546 656.500488,945.999329 
M459.005798,968.603455 
	C461.738129,958.552368 464.470490,948.501221 467.344299,937.929688 
	C450.137695,942.408813 433.757080,946.672913 416.738312,951.103149 
	C430.186798,961.129150 442.897461,970.605103 456.070770,980.425964 
	C457.262970,975.946350 458.128296,972.694824 459.005798,968.603455 
M428.653564,567.048584 
	C434.982849,562.245972 441.312164,557.443420 447.796112,552.523499 
	C434.496643,546.059509 421.395477,539.691956 408.192017,533.274719 
	C408.192017,549.957153 408.192017,566.173401 408.192017,583.218445 
	C415.153687,577.691528 421.600098,572.573669 428.653564,567.048584 
M468.945343,854.379822 
	C464.227417,863.703735 459.509521,873.027710 454.190094,883.540344 
	C471.179962,876.841248 486.877899,870.651550 502.508301,864.488464 
	C495.053467,853.901855 487.635193,843.367126 479.900757,832.383423 
	C476.085938,839.854126 472.570221,846.739014 468.945343,854.379822 
M501.000031,659.533752 
	C500.584442,665.834167 500.168854,672.134583 499.710388,679.085144 
	C518.515015,672.043396 536.482422,665.315125 554.957642,658.396729 
	C537.158630,653.137756 519.808228,648.011292 502.428375,642.876160 
	C501.921051,648.458374 501.460541,653.525574 501.000031,659.533752 
M442.268616,314.945221 
	C447.698792,312.761749 453.128967,310.578278 456.892456,309.064972 
	C447.479584,299.631714 437.602325,289.733063 428.087616,280.197754 
	C423.368652,294.398407 418.330292,309.560303 413.010345,325.569458 
	C423.091675,321.825500 432.280334,318.413116 442.268616,314.945221 
M554.955994,359.459991 
	C548.115356,354.684052 541.274719,349.908142 534.350647,345.073975 
	C532.441162,364.521515 530.586060,383.414337 528.617859,403.459564 
	C540.705688,390.073639 551.818481,377.767487 562.940491,365.451111 
	C560.163818,363.418213 557.817261,361.700256 554.955994,359.459991 
M466.587677,741.946045 
	C467.022308,742.615784 467.321808,743.702026 467.911621,743.893372 
	C478.443848,747.310608 489.011322,750.619263 500.377869,754.205811 
	C497.441223,736.199341 494.604980,718.808533 491.594543,700.349426 
	C489.998993,703.099731 489.056854,704.783691 488.059143,706.434021 
	C481.031372,718.058655 473.992218,729.676392 466.587677,741.946045 
M473.610168,674.930298 
	C476.210815,675.655212 478.811462,676.380127 482.599304,677.435974 
	C471.449158,661.437012 460.964661,646.393066 450.390289,631.220276 
	C445.152130,641.716431 439.979797,652.080688 434.427338,663.206604 
	C447.680023,667.071777 460.313690,670.756348 473.610168,674.930298 
M444.983002,734.480347 
	C446.193909,734.984436 447.404816,735.488586 449.707062,736.447083 
	C442.018707,717.038452 434.798920,698.812744 427.254669,679.767883 
	C422.052063,693.585388 417.150208,706.604248 412.147278,719.891479 
	C423.067047,724.695679 433.699615,729.373596 444.983002,734.480347 
M470.044708,918.326294 
	C471.169464,919.534058 472.294220,920.741821 473.826233,922.386841 
	C482.321136,906.874084 490.635406,891.691162 499.690277,875.155823 
	C482.813293,882.162964 467.428253,888.550720 451.800171,895.039307 
	C458.088867,902.863281 464.017853,910.239685 470.044708,918.326294 
M533.640198,748.051514 
	C528.489441,751.474365 523.338623,754.897278 517.853027,758.542664 
	C533.616699,761.070312 548.630066,763.477661 564.346436,765.997742 
	C564.346436,753.238525 564.346436,740.919495 564.346436,728.509827 
	C554.432739,734.938904 544.403931,741.442566 533.640198,748.051514 
M588.054688,847.379822 
	C590.751282,852.571350 593.447815,857.762878 596.368896,863.386597 
	C605.899292,850.321533 614.939331,837.928711 623.440125,826.275146 
	C608.522705,826.275146 593.509216,826.275146 577.588440,826.275146 
	C581.481140,833.923218 584.713379,840.273560 588.054688,847.379822 
M443.375244,217.000000 
	C432.772125,217.000000 422.169006,217.000000 411.183990,217.000000 
	C416.622986,230.798401 421.910004,244.211212 427.304108,257.895691 
	C435.652069,244.115692 443.742615,230.760620 452.078857,217.000000 
	C448.985962,217.000000 446.655945,217.000000 443.375244,217.000000 
M490.302399,761.058594 
	C482.369263,758.651917 474.436127,756.245239 465.665375,753.584473 
	C470.568512,771.865662 475.219269,789.205872 480.112061,807.448547 
	C486.773254,792.478088 492.925415,778.651733 499.245331,764.448303 
	C496.360870,763.414429 493.676086,762.452209 490.302399,761.058594 
M779.495972,947.003662 
	C780.699890,944.496338 781.903870,941.989014 783.107788,939.481689 
	C782.842346,939.302429 782.576904,939.123108 782.311462,938.943787 
	C763.034241,953.082886 743.757080,967.222046 723.611084,981.998352 
	C735.662048,981.998352 746.595642,982.127502 757.519775,981.862671 
	C759.207520,981.821716 761.576721,980.375671 762.398987,978.895325 
	C768.132568,968.571533 773.541504,958.067383 779.495972,947.003662 
M427.480774,926.028137 
	C424.435730,930.595764 421.390656,935.163391 417.823425,940.514221 
	C434.242859,936.423584 449.906616,932.521240 465.974670,928.518127 
	C458.623840,919.205383 451.526306,910.213501 444.296265,901.053772 
	C438.771576,909.341492 433.385895,917.420593 427.480774,926.028137 
M489.997314,314.496429 
	C500.476349,318.787994 510.955383,323.079529 522.775513,327.920288 
	C518.038696,313.659515 513.834412,301.001770 509.550079,288.103210 
	C498.964813,294.980194 488.420105,301.830811 477.082184,309.196777 
	C481.703308,311.026855 485.524139,312.539978 489.997314,314.496429 
M640.459717,961.936829 
	C631.712646,968.373047 622.965576,974.809265 613.369690,981.870056 
	C637.866028,981.870056 661.058899,981.870056 685.689941,981.870056 
	C674.127502,976.219666 663.820984,971.056763 653.393250,966.151550 
	C649.419067,964.282166 645.166626,963.004211 640.459717,961.936829 
M700.500732,904.926941 
	C714.592224,899.973511 728.683655,895.020081 742.928589,890.012695 
	C739.445557,880.555969 736.100952,871.475037 732.672119,862.165344 
	C719.900085,877.006958 707.385681,891.549194 693.894897,907.226074 
	C696.827209,906.128052 698.278687,905.584534 700.500732,904.926941 
M409.993164,425.800507 
	C409.993164,433.355988 409.993164,440.911499 409.993164,449.990723 
	C420.978516,435.705505 431.019073,422.648956 441.533203,408.976532 
	C430.193542,407.007233 419.730774,405.190247 408.552795,403.249023 
	C409.033325,410.726776 409.487152,417.789001 409.993164,425.800507 
M636.000000,919.500061 
	C636.000000,912.149353 636.000000,904.798584 636.000000,895.951721 
	C626.248230,908.770569 617.464905,920.251831 608.833191,931.845886 
	C608.383667,932.449829 608.877014,934.704163 609.518982,935.029053 
	C618.159180,939.402466 626.903931,943.569458 636.000000,947.970093 
	C636.000000,938.426514 636.000000,929.463257 636.000000,919.500061 
M768.052979,857.619141 
	C773.642761,849.891052 779.232483,842.163025 784.822266,834.434998 
	C784.635925,834.153137 784.449646,833.871216 784.263367,833.589294 
	C769.548096,840.510071 754.832764,847.430847 740.333740,854.249939 
	C743.760681,863.522644 747.100769,872.560181 750.601868,882.033569 
	C756.466492,874.025757 762.208557,866.185303 768.052979,857.619141 
M581.355408,958.950439 
	C572.729431,966.461975 564.103516,973.973511 555.150024,981.770264 
	C569.100708,981.770264 582.345581,981.770264 595.743835,981.770264 
	C595.743835,969.873840 595.743835,958.208313 595.743835,945.907593 
	C590.844482,950.397644 586.397461,954.473145 581.355408,958.950439 
M644.000000,906.511841 
	C644.000000,918.856384 644.000000,931.200867 644.000000,943.545410 
	C644.512085,943.834839 645.024109,944.124329 645.536194,944.413818 
	C653.761658,934.914978 661.987183,925.416199 670.338440,915.772156 
	C662.897095,908.966187 653.761108,900.610291 644.000000,891.682617 
	C644.000000,896.949097 644.000000,901.234070 644.000000,906.511841 
M604.283386,879.006592 
	C602.247742,878.792114 600.634827,878.972290 600.979431,881.749390 
	C601.402588,885.159607 601.745667,888.584167 601.984802,892.012146 
	C602.712708,902.449707 603.374023,912.892029 604.112976,924.118469 
	C614.002869,910.794128 623.423340,898.102112 633.075562,885.097961 
	C623.485046,883.020752 614.327820,881.037476 604.283386,879.006592 
M425.799377,396.942383 
	C430.395477,397.560883 434.991608,398.179352 440.276550,398.890533 
	C429.847931,381.793976 419.709686,365.173370 409.167480,347.890594 
	C409.167480,363.673798 409.167480,378.594666 409.167480,393.573975 
	C414.552155,394.576263 419.786285,395.550507 425.799377,396.942383 
M634.956482,874.903198 
	C633.350403,861.769775 631.744324,848.636292 630.043274,834.725952 
	C621.041016,846.858582 612.612183,858.218445 604.222351,869.525635 
	C614.638611,871.633789 624.631348,873.656189 634.956482,874.903198 
M503.507416,229.994431 
	C495.951141,238.802750 488.394867,247.611084 480.699768,256.581268 
	C489.821808,262.111755 498.061127,267.107086 506.599548,272.283752 
	C506.599548,256.942230 506.599548,242.172852 506.599548,226.265366 
	C505.281403,227.903824 504.652252,228.685837 503.507416,229.994431 
M439.052979,632.632446 
	C440.766296,629.611511 442.479614,626.590576 444.249969,623.469055 
	C433.980743,616.903931 424.167206,610.630066 413.651581,603.907410 
	C418.692932,620.665710 423.483154,636.589233 428.378723,652.862915 
	C432.025604,646.140076 435.484985,639.762939 439.052979,632.632446 
M453.001190,814.501953 
	C448.970947,812.533569 444.940674,810.565125 440.897339,808.590332 
	C433.453583,819.561218 426.320953,830.073547 419.188324,840.585938 
	C419.357544,840.855652 419.526764,841.125427 419.695984,841.395142 
	C435.453033,834.978516 451.210114,828.561890 467.765594,821.820129 
	C462.341522,819.183105 457.983551,817.064331 453.001190,814.501953 
M475.419983,318.997192 
	C474.412964,318.687134 473.405975,318.377075 472.029175,317.953156 
	C472.790649,327.245453 473.515411,336.089661 474.254730,345.111633 
	C488.042877,341.870178 501.316376,338.749756 515.518799,335.410919 
	C513.458984,334.387451 512.114197,333.609650 510.689240,333.028534 
	C499.212006,328.348419 487.719727,323.705322 475.419983,318.997192 
M436.064453,273.063538 
	C445.393616,281.802673 454.722778,290.541779 463.661591,298.915253 
	C465.098419,287.942322 466.635559,276.203186 468.204285,264.223175 
	C457.203735,267.006317 446.730835,269.655914 436.064453,273.063538 
M453.501526,775.999207 
	C451.236694,782.892639 448.871826,789.756104 446.796387,796.706116 
	C446.408234,798.005981 446.686859,800.560059 447.492462,800.997253 
	C455.094269,805.122803 462.877106,808.914917 471.422882,813.213074 
	C466.991058,796.336060 462.798676,780.370728 458.606293,764.405396 
	C458.296967,764.309875 457.987640,764.214417 457.678345,764.118896 
	C456.431976,767.850464 455.185608,771.582031 453.501526,775.999207 
M477.053131,246.559189 
	C485.584625,236.901413 494.116119,227.243652 502.983337,217.205841 
	C490.662781,217.205841 478.941620,217.205841 466.463226,217.205841 
	C468.626251,224.170090 470.559357,230.787186 472.758972,237.314468 
	C473.902618,240.708191 475.516937,243.943283 477.053131,246.559189 
M772.932739,977.453186 
	C772.247986,978.799927 771.563232,980.146667 770.680298,981.883301 
	C778.803101,982.657959 786.203613,983.363770 793.724365,984.081055 
	C793.724365,969.190735 793.724365,954.875793 793.724365,939.348572 
	C786.446960,952.488281 779.746826,964.585571 772.932739,977.453186 
M441.819092,984.999939 
	C442.709106,984.999939 443.599121,984.999939 445.988525,984.999939 
	C433.292267,975.481506 421.851257,966.904175 410.283508,958.231750 
	C409.798828,967.379822 409.340393,976.032166 408.865234,985.000000 
	C420.039368,985.000000 430.495972,985.000000 441.819092,984.999939 
M480.496307,266.927948 
	C478.061890,265.073395 477.350281,266.645569 477.026276,268.736359 
	C476.752502,270.503235 476.664246,272.297974 476.432526,274.072357 
	C475.324371,282.557526 474.195404,291.039948 472.981537,300.221130 
	C483.546143,293.468475 493.601196,287.041504 503.725555,280.570221 
	C496.160126,276.013824 488.710724,271.527283 480.496307,266.927948 
M437.368378,261.750519 
	C447.535217,259.413513 457.702087,257.076508 468.006805,254.707809 
	C464.883881,245.109177 461.824707,235.706467 458.552917,225.650330 
	C451.219421,238.005310 444.388123,249.514221 437.368378,261.750519 
M621.968140,951.463684 
	C616.097595,948.789124 610.227051,946.114563 604.143799,943.343140 
	C604.143799,954.179871 604.143799,964.763794 604.143799,976.297852 
	C613.341064,969.446472 622.065674,962.947144 631.220093,956.127747 
	C628.089050,954.610291 625.332886,953.274536 621.968140,951.463684 
M419.821533,792.952332 
	C424.042999,793.969360 428.318359,794.809021 432.466034,796.069092 
	C435.012970,796.842957 436.408905,797.377197 437.194183,793.799194 
	C438.290192,788.805176 440.377289,784.029663 442.023071,779.154846 
	C443.794586,773.907410 445.546204,768.653259 447.306519,763.402039 
	C446.943054,763.191956 446.579620,762.981873 446.216187,762.771851 
	C435.571716,772.067505 424.927277,781.363159 413.875946,791.014160 
	C415.836517,791.608459 417.462219,792.101257 419.821533,792.952332 
M430.074951,807.389526 
	C429.952026,806.601807 429.991943,805.198853 429.682190,805.116821 
	C422.998779,803.347717 416.276306,801.726135 409.555786,800.074707 
	C408.013855,808.859131 408.766113,832.229919 410.868896,835.842163 
	C417.163361,826.457092 423.365204,817.210083 430.074951,807.389526 
M409.000000,284.499695 
	C409.000000,291.095917 409.000000,297.692169 409.000000,304.288391 
	C413.379425,293.314880 417.189270,282.242950 420.898804,271.137512 
	C421.182800,270.287354 420.976471,269.113892 420.628967,268.236938 
	C416.974396,259.013763 413.244659,249.820419 409.000000,239.289978 
	C409.000000,254.979385 409.000000,269.239594 409.000000,284.499695 
M537.496277,276.000061 
	C533.396423,277.773193 529.296631,279.546356 524.466187,281.635468 
	C532.502319,286.020813 539.937073,290.077972 547.527283,294.220032 
	C551.791504,284.979767 555.848145,276.189423 559.904785,267.399109 
	C559.605835,267.148804 559.306885,266.898529 559.007935,266.648254 
	C552.098389,269.747375 545.188782,272.846527 537.496277,276.000061 
M417.994141,651.580505 
	C415.899231,644.907715 413.804321,638.234924 411.303040,630.267639 
	C411.303040,652.215027 411.303040,672.720337 411.303040,694.167664 
	C412.851532,690.295227 414.131104,687.377441 415.194946,684.382996 
	C418.616730,674.751709 424.985443,665.473816 418.944183,654.637329 
	C418.554077,653.937561 418.315002,653.153564 417.994141,651.580505 
M556.046265,296.693665 
	C555.379639,298.823456 553.652100,301.302979 554.220032,303.025818 
	C557.695984,313.570435 561.692139,323.943573 565.782227,335.102814 
	C565.782227,316.065613 565.782227,297.898254 565.782227,278.851288 
	C562.396484,285.092255 559.428040,290.563965 556.046265,296.693665 
M553.055359,328.238342 
	C551.809082,323.822479 550.562744,319.406616 548.993530,313.846619 
	C544.815613,321.203857 541.268677,327.303741 537.946777,333.523773 
	C537.611084,334.152374 538.335449,335.896362 539.073853,336.461029 
	C544.213867,340.392029 549.459167,344.188263 554.736389,347.935150 
	C556.244690,349.006073 557.969849,349.771545 560.770935,351.331726 
	C558.032715,342.960236 555.743103,335.960114 553.055359,328.238342 
M542.916199,302.621124 
	C535.844971,298.639465 528.773682,294.657806 520.489746,289.993286 
	C524.464417,301.887726 527.929443,312.257141 531.743958,323.672241 
	C535.774719,316.359650 539.351868,309.869934 542.916199,302.621124 
z"/>
</svg>